<svg version="1.1" xmlns="http://www.w3.org/2000/svg" xmlns:xlink="http://www.w3.org/1999/xlink" width="129.50718" height="120.44935" viewBox="0,0,129.50718,120.44935"><g transform="translate(-178.63997,-110.0998)"><g data-paper-data="{&quot;isPaintingLayer&quot;:true}" fill-rule="nonzero" stroke-linejoin="miter" stroke-miterlimit="10" stroke-dasharray="" stroke-dashoffset="0" style="mix-blend-mode: normal"><g data-paper-data="{&quot;index&quot;:null}"><g><path d="M208.10747,210.17253l5.86828,0.9083l-0.76297,4.92936l-5.86828,-0.9083z" fill="#000000" stroke="none" stroke-width="0" stroke-linecap="butt"/><path d="M179.78808,203.50091l4.6481,0.58483c0,0 1.52919,2.35044 2.12707,3.7391c0.2122,0.49286 0.15946,3.29168 1.02851,3.00865c0.7697,-0.25066 2.46302,-3.61837 2.75139,-2.84676c0.27743,0.74234 11.46076,3.50157 11.47308,4.64698c0.03175,2.95244 0.80317,10.25971 0.80317,10.25971l-17.25311,-3.43318c0,0 -5.53297,-11.98653 -6.42957,-14.55173c-0.34216,-0.97894 0.85136,-1.40761 0.85136,-1.40761z" fill="#949494" stroke="#000000" stroke-width="2.5" stroke-linecap="butt"/><path d="M201.66502,211.66707l2.96038,-1.53319l2.76723,0.46498l1.73377,1.91256l0.62279,2.91601l-5.5996,8.61744z" fill="#242424" stroke="#000000" stroke-width="2.5" stroke-linecap="butt"/><path d="M206.60397,218.33324l-2.24528,0.19088l-1.6241,-1.3696" fill="none" stroke="#000000" stroke-width="2.5" stroke-linecap="round"/><path d="M188.1116,210.5201l-4.48451,3.99964" fill="none" stroke="#000000" stroke-width="2.5" stroke-linecap="round"/></g><g stroke="none" stroke-linecap="butt"><path d="M190.50796,209.6656l7.91871,2.23541l3.30018,0.0601l-0.56129,10.17742l-15.75229,-4.29037z" fill="#8c6200" stroke-width="NaN"/><path d="M197.86673,212.06034l3.4894,0.00353l-0.11059,9.78483l-3.83542,-0.80721z" fill="#8c0081" stroke-width="NaN"/><path d="M179.60153,204.58752l2.73415,0.23438l1.28538,0.44285l1.98503,2.84228l0.95741,2.92985l4.01038,-1.51085l2.72674,1.27569l-7.93155,7.49771z" fill="#8c0081" stroke-width="0"/><g fill="#ffffff" stroke-width="0.5"><path d="M197.97971,217.31716c-0.07873,0.47798 -0.16663,0.83713 -0.51672,1.28189c-0.29473,0.31808 -0.72516,0.74565 -1.19067,0.8212c-0.33046,0.05364 -0.67761,-0.20208 -0.96306,-0.5732c0.29366,-0.9349 0.51393,-1.88874 0.75293,-2.84111c0,0 0.03524,-0.14042 -0.0714,-0.215c0.97174,-0.53789 2.08332,-0.10267 2.2344,1.22573c0,0 0.02811,0.27224 -0.24412,0.30034c-0.00046,0.00005 -0.00091,0.0001 -0.00136,0.00014zM196.58282,218.2881c-0.0276,0.10996 0.03917,0.22145 0.14912,0.24904c0.10996,0.0276 0.22145,-0.03917 0.24904,-0.14912c0.0276,-0.10996 -0.03917,-0.22145 -0.14912,-0.24904c-0.10996,-0.0276 -0.22145,0.03917 -0.24904,0.14912zM197.02403,216.67058c-0.0276,0.10996 0.03917,0.22145 0.14912,0.24905c0.10996,0.0276 0.22145,-0.03918 0.24904,-0.14912c0.0276,-0.10996 -0.03917,-0.22145 -0.14912,-0.24904c-0.10996,-0.0276 -0.22145,0.03917 -0.24904,0.14912z"/><path d="M196.35593,214.77365c-0.01447,0.05768 -0.03571,0.10408 -0.06124,0.14129c0.06373,0.09657 0.13389,0.27626 -0.042,0.46394c-0.25991,0.27733 -0.53722,0.01742 -0.53722,0.01742c-0.16234,-0.15423 -0.3157,-0.32143 -0.44897,-0.50232c-0.03398,0.04448 -0.06531,0.0699 -0.06531,0.0699c-0.54921,0.44225 -1.0463,0.93556 -1.56799,1.40463c0.17465,0.66903 0.32516,1.34326 0.47521,2.02447c0.18353,-0.04916 0.34708,-0.08437 0.45653,-0.10884c0,0 0.21325,-0.04719 0.35222,0.09163c0.0217,0.00392 0.04421,0.01015 0.06746,0.01909c-0.25547,-0.4979 -0.38711,-1.04381 -0.27571,-1.34269c0.03753,-0.10069 0.68287,-0.74584 0.75865,-0.82263c0.04922,-0.04989 0.09951,-0.09673 0.15067,-0.14051c-0.1935,0.77646 -0.37705,1.55348 -0.6022,2.31937c0.01768,0.00846 0.03575,0.01848 0.05422,0.03025c0.32047,0.20434 0.11612,0.52481 0.11612,0.52481l-0.15503,0.21189c-0.31668,0.2688 -2.15829,1.43509 -2.19287,0.12619c-0.00744,-0.28192 0.23427,-0.49231 0.5461,-0.64818c-0.13366,-0.57792 -0.27574,-1.14772 -0.42441,-1.71458c-0.07128,0.05587 -0.14347,0.11082 -0.21677,0.1647c-0.39921,0.29345 -0.84208,0.50091 -1.25372,0.76702c0.02243,0.23683 0.04177,0.49486 0.08793,0.79436c0,0 0.05638,0.37586 -0.31948,0.43225c-0.03732,0.0056 -0.07149,0.00694 -0.10277,0.0048c-0.02253,0.02108 -0.04935,0.04133 -0.0811,0.06035c-0.32609,0.19526 -0.52135,-0.13084 -0.52135,-0.13084l-0.09336,-0.16337c-0.34492,-0.82254 -0.43868,-1.33878 -0.39706,-1.97378l-0.03009,0.00282l-0.07007,-0.74802c-0.00523,-0.04451 -0.00261,-0.09071 0.00895,-0.13677c0.05109,-0.2036 0.25756,-0.32721 0.46116,-0.27612c0.10179,0.02555 0.1836,0.08994 0.23357,0.17339l0.23122,0.38618c0.23049,0.28528 0.36475,0.53599 0.44791,0.78273c0.31925,-0.18713 0.64406,-0.36327 0.9456,-0.58567c0.15596,-0.11503 0.30682,-0.23453 0.45418,-0.35712c-0.17253,-0.63106 -0.35224,-1.26151 -0.53662,-1.89852c-0.03963,-0.13692 -0.28194,-0.90624 -0.44023,-1.46021c-0.03451,0.02198 -0.06886,0.04666 -0.10238,0.07506l-0.378,0.06188c0,0 -0.36863,-0.09251 -0.27612,-0.46116c0.05044,-0.20097 0.18292,-0.26488 0.29303,-0.28145c0.3869,-0.28871 0.63415,-0.38315 0.96352,-0.35233l0.00007,-0.06779l0.38325,0.00034c0.03316,-0.0007 0.06697,0.00298 0.10069,0.01144c0.2036,0.05109 0.32721,0.25756 0.27612,0.46116c-0.02045,0.08145 -0.06576,0.15011 -0.1258,0.1999l-0.30799,0.26187l-0.03654,-0.04297l-0.07866,0.1102c-0.04456,-0.03664 -0.14971,-0.12308 -0.19193,-0.15779c0.61492,0.50992 0.59651,1.39435 0.85625,2.14178c0.09427,0.27127 0.18123,0.54317 0.26251,0.81583c0.4327,-0.39711 0.85575,-0.80361 1.31636,-1.17947c0,0 0.00292,-0.00237 0.00843,-0.00635c-0.06039,-0.08699 -0.08434,-0.19863 -0.05654,-0.30941c0.05109,-0.2036 0.25757,-0.32722 0.46116,-0.27612c0.01407,0.00352 0.02776,0.0078 0.04103,0.01276l0.44443,0.15999l-0.03841,0.10673l0.01046,0.00722l-0.01097,0.01587c0.20686,0.05973 0.39995,0.15027 0.56077,0.28548l-0.06293,-0.05717c0,0 0.36864,0.09252 0.27612,0.46116z"/></g></g></g><path d="M205.98814,209.91953c0,0 5.82669,-7.13293 7.96392,-9.74929c1.44,-1.76283 3.61535,-4.42586 3.61535,-4.42586c0,0 3.69239,-2.32732 4.18468,-2.15001c1.1275,0.4061 4.15437,-0.02172 5.7914,1.99969c1.30729,1.61427 2.06224,5.42301 2.39404,6.48931c0.58447,1.87824 -3.02553,6.04263 -3.02553,6.04263l-10.95791,10.6031z" data-paper-data="{&quot;index&quot;:null}" fill="#949494" stroke="#000000" stroke-width="2.5" stroke-linecap="butt"/><g data-paper-data="{&quot;index&quot;:null}" fill="#949494" stroke="#000000" stroke-width="2"><path d="M216.01019,216.48408c0,0 -4.77607,-3.84424 -7.20167,-11.09865c-1.80229,-5.39023 -1.56217,-13.51433 -1.04569,-18.83477c0.35381,-3.64469 0.17578,-3.93963 0.96648,-6.59672c1.68228,-5.65317 4.65764,-2.3934 7.77886,-2.9894c1.62538,-0.31037 6.6278,2.9405 6.6278,2.9405c0,0 -3.50116,0.1644 7.24001,0.23325c0.43887,0.00281 21.54091,-0.47078 21.97571,-0.47078c4.50321,0 17.33941,-2.13774 17.33941,-2.13774c0,0 2.3067,5.03894 4.48262,9.71385c0.81143,1.74334 1.60468,3.23156 2.25333,4.68416c1.80083,4.0328 1.5651,4.21851 2.69679,6.62759c3.14827,6.70185 -3.49459,18.64127 -3.49459,18.64127z" stroke-linecap="butt"/><path d="M235.18928,180.79313l-0.23753,1.66268c0,0 5.59476,0.64202 8.13973,0.93407c2.24772,0.25793 6.34937,0.72861 6.34937,0.72861l3.32537,-4.27547l-4.03795,4.98805c0,0 -4.77616,8.7766 -5.1374,13.07136c-0.35105,9.37354 8.79967,18.34394 8.79967,18.34394" stroke-linecap="round"/><path d="M223.07545,187.44388c0,0 6.23973,0.3504 8.00911,2.72298c0.94897,1.27248 3.37102,8.06752 2.58871,13.45012c-0.28402,1.95419 -3.97754,10.0884 -8.46709,10.60669c-1.65559,0.19113 -7.33431,-1.22586 -10.76089,-4.83995c-2.77692,-2.92887 -3.58557,-7.70834 -3.45338,-11.01242c0.13327,-3.33107 3.05358,-6.77484 6.30116,-8.77418c2.66459,-1.64043 5.78238,-2.15324 5.78238,-2.15324" stroke-linecap="round"/><path d="M273.19346,200.50782c0,6.42792 -4.945,12.82642 -11.04497,12.82642c-6.09997,0 -11.75755,-6.16096 -11.75755,-12.58889c0,-6.42793 3.9949,-11.16373 10.09486,-11.16373c1.43888,0 4.23865,1.00251 5.49925,1.52997c4.08361,1.70863 7.2084,4.48455 7.2084,9.39624z" stroke-linecap="butt"/></g><g data-paper-data="{&quot;index&quot;:null}" stroke="#000000" stroke-width="2" stroke-linecap="round"><path d="M293.2227,175.37506c0,0 -7.75074,4.65523 -11.55527,5.54049c-2.17047,0.50504 -7.39597,0.70869 -9.86341,-0.26384c-0.36581,-0.14418 -1.36076,-1.46309 -0.26836,-2.87923c0.94086,-1.2197 3.74267,-2.52207 6.17332,-3.08506c5.65133,-1.30895 15.27936,0.64894 15.27936,0.64894" fill="#d8d8d8"/><path d="M275.6893,175.12674l0.67258,6.12975" fill="none"/></g><path d="M209.19423,212.40195c0,0 4.44369,-8.06739 6.07362,-11.02651c1.0982,-1.99378 2.75721,-5.00567 2.75721,-5.00567c0,0 3.21173,-2.95549 3.72794,-2.86995c1.18227,0.19594 4.08223,-0.77113 6.0572,0.92163c1.57717,1.35183 3.00709,4.96177 3.5259,5.95068c0.91385,1.74192 -1.88529,6.48945 -1.88529,6.48945l-8.86434,12.40664z" data-paper-data="{&quot;index&quot;:null}" fill="#949494" stroke="#000000" stroke-width="2.5" stroke-linecap="butt"/><g data-paper-data="{&quot;index&quot;:null}"><g><path d="M281.05049,210.61704l-5.93802,-0.03967l0.03332,-4.98794l5.93802,0.03967z" data-paper-data="{&quot;index&quot;:null}" fill="#000000" stroke="none" stroke-width="0" stroke-linecap="butt"/><path d="M287.72602,208.45919l10.56626,-2.00314l8.08814,5.42939l0.47338,3.67995l0.0363,1.71244l-4.95578,8.67113l-3.0425,2.56844l-1.03822,-2.35013l-0.0363,-1.71244l-0.58277,-2.62335l1.18437,-3.18797l-4.04441,1.93075l-4.57249,-1.2209l-4.9551,-0.61975z" fill="#949494" stroke="#000000" stroke-width="2.5" stroke-linecap="round"/><path d="M284.84692,218.7336l-1.98567,-0.41915l-2.93266,-4.68209l-1.4206,-4.84594l1.91305,-3.00573l3.07881,-0.85599l3.5522,2.82396z" fill="#242424" stroke="#000000" stroke-width="2.5" stroke-linecap="round"/><path d="M286.43227,212.70376l-4.51802,1.34776l-2.07667,-1.60329" fill="none" stroke="#000000" stroke-width="2.5" stroke-linecap="round"/></g><g stroke="none" stroke-linecap="butt"><path d="M299.60029,217.30844l-5.64965,2.32975l-7.91521,-1.99566l1.73124,-7.62272l11.55823,-2.72019l4.57649,3.55872z" fill="#8c6200" stroke-width="NaN"/><path d="M288.87888,218.20779l-3.12017,-0.36564l1.45092,-7.4553l4.43385,-3.09519z" fill="#8c0081" stroke-width="NaN"/><path d="M298.83351,227.60974l-1.34423,-2.3924l-0.35692,-1.31184l1.23332,-3.24003l0.5129,-3.3122l3.906,-6.19465l4.14132,3.96935l-4.96331,10.1829z" fill="#8c0081" stroke-width="0"/><g fill="#ffffff" stroke-width="0.5"><path d="M290.35135,213.65241c-0.04272,-0.48254 -0.04699,-0.85226 0.18138,-1.37017c0.20628,-0.38144 0.51673,-0.90268 0.94877,-1.09173c0.30671,-0.1342 0.70658,0.02705 1.07544,0.31543c-0.0517,0.97856 -0.02761,1.95722 -0.02203,2.9391c0,0 0.00082,0.14477 0.12267,0.19045c-0.80727,0.76284 -1.99219,0.61802 -2.46918,-0.63096c0,0 -0.09498,-0.25666 0.16168,-0.35165c0.00042,-0.00016 0.00086,-0.00032 0.00128,-0.00048zM291.46258,212.36433c-0.00065,-0.11335 -0.09306,-0.20474 -0.20642,-0.20409c-0.11335,0.00065 -0.20473,0.09305 -0.20409,0.20642c0.00065,0.11335 0.09306,0.20474 0.20643,0.20409c0.11335,-0.00065 0.20474,-0.09306 0.20409,-0.20642zM291.43789,214.04076c-0.00065,-0.11335 -0.09306,-0.20474 -0.20642,-0.20409c-0.11335,0.00065 -0.20474,0.09306 -0.20409,0.20643c0.00065,0.11335 0.09305,0.20473 0.20642,0.20408c0.11335,-0.00065 0.20474,-0.09305 0.2041,-0.20641z"/><path d="M292.55714,215.71169c-0.00035,-0.05946 0.00868,-0.10968 0.02414,-0.15209c-0.08576,-0.07766 -0.19844,-0.23424 -0.07481,-0.45979c0.18269,-0.33328 0.51598,-0.15059 0.51598,-0.15059c0.19564,0.10896 0.38577,0.23273 0.55987,0.37476c0.02184,-0.05153 0.04586,-0.08395 0.04586,-0.08395c0.42184,-0.56504 0.78049,-1.16656 1.169,-1.75071c-0.33569,-0.60449 -0.64929,-1.22004 -0.96418,-1.84246c-0.16552,0.0933 -0.31515,0.16811 -0.41507,0.21906c0,0 -0.19479,0.09879 -0.36393,-0.00108c-0.022,0.00161 -0.04534,0.00118 -0.07009,-0.0017c0.37136,0.41863 0.63475,0.91459 0.60125,1.23179c-0.01128,0.10686 -0.47573,0.89235 -0.53,0.98559c-0.03526,0.06058 -0.0723,0.11844 -0.11094,0.17359c-0.00588,-0.80019 -0.02151,-1.59844 0.00591,-2.39627c-0.01923,-0.00379 -0.03924,-0.00899 -0.06005,-0.01581c-0.36125,-0.11813 -0.24311,-0.47939 -0.24311,-0.47939l0.09741,-0.24381c0.23982,-0.33917 1.73315,-1.92715 2.09243,-0.66805c0.07738,0.27119 -0.10435,0.53513 -0.36757,0.76372c0.27331,0.52647 0.55275,1.04297 0.83784,1.55497c0.05512,-0.07185 0.11137,-0.14305 0.16895,-0.21348c0.31361,-0.38358 0.69088,-0.69476 1.02333,-1.05495c-0.08069,-0.22379 -0.16364,-0.46889 -0.28289,-0.74746c0,0 -0.14816,-0.35 0.20183,-0.49817c0.03474,-0.01472 0.06751,-0.02451 0.09834,-0.03023c0.01657,-0.02602 0.03751,-0.05232 0.06353,-0.07865c0.26723,-0.27027 0.5375,-0.00305 0.5375,-0.00305l0.13108,0.13498c0.53882,0.71079 0.75812,1.18746 0.87588,1.81282l0.02844,-0.01022l0.25406,0.70704c0.01614,0.04182 0.0251,0.0872 0.02538,0.13469c0.0012,0.20991 -0.168,0.38103 -0.37792,0.38222c-0.10495,0.00059 -0.20022,-0.04141 -0.26937,-0.10979l-0.32008,-0.31647c-0.29424,-0.21893 -0.48669,-0.42833 -0.62865,-0.64661c-0.26262,0.26071 -0.53336,0.51216 -0.77004,0.80262c-0.12242,0.15024 -0.23878,0.30352 -0.35098,0.45893c0.32419,0.56826 0.65516,1.13412 0.99231,1.70519c0.07247,0.12274 0.49864,0.80754 0.78984,1.30467c0.02795,-0.02989 0.05507,-0.06234 0.08048,-0.09818l0.3507,-0.15402c0,0 0.38007,-0.00215 0.38222,0.37792c0.00118,0.20719 -0.11124,0.30207 -0.21375,0.34552c-0.30285,0.37593 -0.51881,0.52893 -0.84549,0.58108l0.01681,0.06568l-0.37127,0.09506c-0.03194,0.00893 -0.0656,0.01378 -0.10037,0.01397c-0.20991,0.0012 -0.38103,-0.16799 -0.38223,-0.3779c-0.00047,-0.08399 0.02632,-0.16176 0.07209,-0.22493l0.23311,-0.33029l0.04609,0.03252l0.04876,-0.12631c0.05229,0.02439 0.17563,0.08194 0.22518,0.10505c-0.7225,-0.34081 -0.92482,-1.20197 -1.36243,-1.86123c-0.15883,-0.23927 -0.31074,-0.48096 -0.45732,-0.72481c-0.32023,0.49232 -0.62879,0.99133 -0.98134,1.47c0,0 -0.00225,0.00303 -0.00659,0.00824c0.08015,0.06922 0.13113,0.17139 0.13177,0.28561c0.0012,0.20991 -0.168,0.38103 -0.37791,0.38221c-0.0145,0.00009 -0.02882,-0.00065 -0.04292,-0.00215l-0.47026,-0.04433l0.01064,-0.11293l-0.01193,-0.00439l0.00667,-0.01809c-0.21522,-0.00636 -0.42475,-0.04599 -0.61418,-0.13691l0.07517,0.0397c0,0 -0.38006,0.00216 -0.38221,-0.37791z"/></g></g></g><path d="M254.13563,208.45423l-1.25451,-3.11607l0.95507,-5.27304l4.04685,-3.43981l6.77037,1.07648l13.64595,7.36125l0.09712,1.59041l-4.5932,10.17781l-16.19952,-5.60898z" data-paper-data="{&quot;index&quot;:null}" fill="#949494" stroke="#000000" stroke-width="2.5" stroke-linecap="round"/><g data-paper-data="{&quot;index&quot;:null}"><g><path d="M211.92041,212.20901l4.52617,3.53534l-2.81724,4.00771l-4.52616,-3.53533z" fill="#000000" stroke="none" stroke-width="0" stroke-linecap="butt"/><path d="M191.08832,193.1227l3.64448,2.68111c0,0 0.24609,2.79208 0.13492,4.29944c-0.03946,0.53499 -1.31961,2.98759 -0.46494,3.14159c0.75695,0.13641 3.6658,-2.05609 3.5672,-1.23892c-0.09485,0.78615 8.07673,8.43364 7.5813,9.45313c-1.27703,2.6279 -3.85595,9.45441 -3.85595,9.45441l-12.97041,-11.06919c0,0 0.64713,-13.18428 1.02702,-15.872c0.14497,-1.02568 1.33639,-0.84956 1.33639,-0.84956z" fill="#949494" stroke="#000000" stroke-width="2.5" stroke-linecap="butt"/><path d="M205.85114,210.53311l3.16266,0.02095l2.11815,1.69956l0.61122,2.49974l-0.76469,2.87075l-8.50679,5.02066z" fill="#242424" stroke="#000000" stroke-width="2.5" stroke-linecap="butt"/><path d="M207.05453,218.732l-1.9695,-0.87613l-0.75888,-1.96815" fill="none" stroke="#000000" stroke-width="2.5" stroke-linecap="round"/><path d="M194.97764,203.20942l-5.53147,1.45261" fill="none" stroke="#000000" stroke-width="2.5" stroke-linecap="round"/></g><g stroke="none" stroke-linecap="butt"><path d="M197.36703,203.56851l5.66177,5.66432l2.74443,1.58929l-4.96526,8.74648l-11.33175,-11.12929z" fill="#8c6200" stroke-width="NaN"/><path d="M202.48831,209.11323l2.92827,1.62728l-4.41349,8.6088l-2.86391,-2.49966z" fill="#8c0081" stroke-width="NaN"/><path d="M190.45187,193.99758l2.1922,1.48007l0.8837,0.99025l0.41166,3.43957l-0.48984,3.03876l4.0344,0.52945l1.72617,2.39826l-9.97034,2.9442z" fill="#8c0081" stroke-width="0"/><g fill="#ffffff" stroke-width="0.5"><path d="M200.26194,213.81847c-0.27717,0.38639 -0.50956,0.66335 -0.9999,0.89404c-0.38792,0.14434 -0.93812,0.32242 -1.36235,0.17262c-0.30116,-0.10634 -0.47972,-0.49425 -0.55552,-0.95558c0.65939,-0.69075 1.26552,-1.43245 1.88673,-2.16413c0,0 0.0916,-0.10788 0.03499,-0.22352c1.05342,-0.02378 1.79457,0.87882 1.33486,2.12487c0,0 -0.09661,0.25404 -0.3376,0.1522c-0.00041,-0.00018 -0.00081,-0.00033 -0.00121,-0.0005zM198.66033,214.02763c-0.07173,0.08448 -0.0649,0.21422 0.01524,0.28983c0.08014,0.07561 0.20323,0.06842 0.27495,-0.01606c0.07173,-0.08448 0.06489,-0.21423 -0.01524,-0.28983c-0.08014,-0.07561 -0.20323,-0.06842 -0.27496,0.01605zM199.74501,212.80138c-0.07173,0.08448 -0.0649,0.21422 0.01524,0.28983c0.08014,0.07561 0.20323,0.0684 0.27495,-0.01606c0.07173,-0.08448 0.06489,-0.21423 -0.01524,-0.28983c-0.08014,-0.07561 -0.20324,-0.06841 -0.27495,0.01606z"/><path d="M200.02168,210.81149c-0.03762,0.04432 -0.07594,0.07549 -0.1138,0.09654c0.01087,0.11514 -0.00957,0.30683 -0.24013,0.39106c-0.34069,0.12448 -0.45876,-0.23465 -0.45876,-0.23465c-0.06821,-0.21207 -0.12315,-0.43143 -0.15518,-0.65356c-0.04817,0.02355 -0.0857,0.03146 -0.0857,0.03146c-0.65642,0.13578 -1.29163,0.34103 -1.93678,0.51337c-0.14877,0.67344 -0.32012,1.34023 -0.49493,2.01299c0.1758,0.04191 0.32867,0.08687 0.43138,0.11616c0,0 0.19989,0.05748 0.25527,0.24504c0.01649,0.01357 0.03264,0.02955 0.04821,0.04829c0.00536,-0.55959 0.13589,-1.10403 0.36139,-1.3167c0.07597,-0.07165 0.9027,-0.34226 1.00024,-0.37497c0.06336,-0.02126 0.12626,-0.03929 0.18855,-0.05423c-0.50533,0.59715 -1.00254,1.19944 -1.52978,1.7725c0.0111,0.01572 0.02186,0.03299 0.03217,0.05201c0.17885,0.33001 -0.13424,0.51855 -0.13424,0.51855l-0.22374,0.11537c-0.38459,0.0905 -2.44586,0.26558 -1.89693,-0.909c0.11824,-0.25299 0.4141,-0.32668 0.74474,-0.3195c0.14296,-0.57371 0.27527,-1.14416 0.40075,-1.71506c-0.08452,0.01628 -0.1694,0.0313 -0.25473,0.04487c-0.46476,0.07392 -0.92823,0.05138 -1.39136,0.0953c-0.08575,0.22006 -0.18344,0.45743 -0.27693,0.744c0,0 -0.11863,0.35891 -0.45912,0.23387c-0.0338,-0.01242 -0.06309,-0.02714 -0.08841,-0.04358c-0.02822,0.00817 -0.05969,0.01361 -0.09476,0.01566c-0.36002,0.02103 -0.37997,-0.35846 -0.37997,-0.35846l-0.00625,-0.18804c0.07359,-0.88856 0.22283,-1.38911 0.53818,-1.93176l-0.02652,-0.01151l0.27148,-0.69467c0.01527,-0.04183 0.03787,-0.0815 0.06791,-0.11688c0.1328,-0.15641 0.36075,-0.16971 0.50913,-0.02973c0.07418,0.07 0.11446,0.16505 0.11955,0.26216l0.02361,0.44941c0.06756,0.35978 0.06959,0.64418 0.03046,0.90126c0.35069,-0.01702 0.7012,-0.02172 1.05257,-0.07823c0.18175,-0.02921 0.36118,-0.06476 0.53903,-0.10466c0.13379,-0.63883 0.26128,-1.28048 0.38775,-1.93009c0.02717,-0.13963 0.16345,-0.93332 0.27515,-1.49729c-0.03868,0.00339 -0.07843,0.00925 -0.11912,0.01877l-0.3447,-0.12118c0,0 -0.26868,-0.25346 -0.02822,-0.53669c0.13108,-0.15439 0.27055,-0.14929 0.37031,-0.1127c0.45233,-0.07545 0.70165,-0.04395 0.9646,0.13663l0.02999,-0.05997l0.32163,0.1787c0.02815,0.01481 0.05491,0.0338 0.0795,0.05699c0.14839,0.13999 0.16101,0.38027 0.02821,0.53668c-0.05313,0.06257 -0.1215,0.10224 -0.19389,0.11837l-0.37423,0.08842l-0.0117,-0.05505l-0.11471,0.06092c-0.02124,-0.05317 -0.07135,-0.17862 -0.09148,-0.22899c0.29115,0.73753 -0.11486,1.51175 -0.22681,2.29417c-0.04064,0.28397 -0.08767,0.5651 -0.13982,0.84426c0.53865,-0.15007 1.07338,-0.31295 1.62608,-0.43121c0,0 0.0035,-0.00074 0.00987,-0.0017c-0.0123,-0.1051 0.01689,-0.21506 0.08915,-0.30017c0.1328,-0.15641 0.36075,-0.16973 0.50913,-0.02974c0.01025,0.00966 0.01985,0.01982 0.02881,0.03039l0.30251,0.34846l-0.07938,0.0766l0.00559,0.01126l-0.01621,0.00894c0.14732,0.14916 0.26945,0.31915 0.34479,0.51368l-0.02759,-0.07988c0,0 0.26867,0.25347 0.02822,0.53667z"/></g></g></g><g stroke="#000000" stroke-width="2.5"><path d="M210.59888,178.62438l-2.22397,-7.05549l-19.18061,8.2753l-7.17261,-11.74772c0,0 3.3854,-5.63671 7.66842,-10.23272c3.03915,-3.26124 6.91312,-5.39055 7.44592,-5.92385c0.68927,-0.68992 7.27053,-3.10507 11.73879,-1.36233c6.25145,2.43823 10.82626,9.49918 11.00901,9.83501c1.60986,2.95853 -1.51863,7.94326 -1.51863,7.94326c0,0 -0.56568,3.27986 -0.48112,4.33378c0.09456,1.17833 1.02187,2.40467 1.02187,2.40467z" fill="#949494" stroke-linecap="butt"/><path d="M182.53075,167.84059l6.13761,-8.02792l8.88106,-7.64525l0.84116,10.48204l-1.75994,4.36106l-11.0015,7.514z" fill="#000000" stroke-linecap="round"/><path d="M199.91531,163.80811l-1.53025,0.65028" fill="none" stroke-linecap="round"/><path d="M199.62554,166.7702l2.09317,-1.14758" fill="none" stroke-linecap="round"/><path d="M203.3035,167.52999l-1.21874,0.77599" fill="none" stroke-linecap="round"/><path d="M190.19406,178.87383l5.76049,-7.09341l9.08858,-4.12027l4.78208,-3.32255l4.28478,-3.88548l3.01131,-2.9476c0,0 2.28278,0.94505 2.70311,1.58237c0.32688,0.49563 -0.40409,4.38113 -1.28723,7.43196c-0.35557,1.22832 -0.38711,3.46642 -8.46348,6.79352c-0.91154,0.37552 -0.37138,-1.85405 -1.8811,-1.36308c-6.13603,1.99548 -17.47782,7.24542 -17.47782,7.24542" fill="#373737" stroke-linecap="round"/><path d="M202.35997,175.98574l0.40994,-1.46462l0.53565,-1.77613l1.12585,-0.99459l1.65042,0.84716l1.18038,1.56306l0.05454,2.55765l-2.21888,1.45908l-11.36754,4.83063l-1.80339,-1.81448z" fill="#000000" stroke-linecap="round"/><path d="M213.39178,173.05015l1.24047,2.31178" fill="none" stroke-linecap="round"/><path d="M209.33115,175.03378l7.59115,-4.0001" fill="none" stroke-linecap="round"/><path d="M204.47369,152.06391l-1.08195,-3.15339l0.56847,-2.30624l4.54685,2.19715l1.98365,4.06063l-2.53592,3.1423l-0.39886,-2.15326l-1.92911,-1.50298z" fill="#151515" stroke-linecap="round"/><path d="M202.82658,155.4758l-0.58465,-2.59046l0.62855,-1.55751l0.72145,-1.33891l1.84175,-0.52456l3.02214,1.0385l1.4318,0.94006l-0.22969,3.71077l-3.24629,0.86334z" fill="none" stroke-linecap="round"/></g><path d="M194.77623,162.79416c-0.99964,0.02658 -1.02622,-0.97307 -1.02622,-0.97307l0.10664,-0.43688c-0.64014,-1.12606 -1.12747,-2.03365 -2.23234,-2.74438c0,0 -0.83127,-0.55586 -0.27541,-1.38713c0.55586,-0.83127 1.38713,-0.27541 1.38713,-0.27541c1.35136,0.92919 2.05162,2.00303 2.85848,3.41708l0.15478,1.37356c0,0 0.02658,0.99964 -0.97307,1.02622z" fill="#54ff00" stroke="none" stroke-width="0.5" stroke-linecap="butt"/><path d="M186.08133,167.6059l5.25,-3.25" fill="none" stroke="#00ff08" stroke-width="1.5" stroke-linecap="round"/><path d="M223.08133,138.81322h8.25l-7.04268,7.04268h6.84146" fill="none" stroke="#000000" stroke-width="1.5" stroke-linecap="round"/><path d="M234.58133,128.53882h11.5l-9.81708,9.81708h9.53659" fill="none" stroke="#000000" stroke-width="1.5" stroke-linecap="round"/><path d="M248.33133,110.8498h18.75l-16.0061,16.0061h15.54878" fill="none" stroke="#000000" stroke-width="1.5" stroke-linecap="round"/></g></g></svg>