<svg version="1.1" xmlns="http://www.w3.org/2000/svg" xmlns:xlink="http://www.w3.org/1999/xlink" width="116.17765" height="103.77716" viewBox="0,0,116.17765,103.77716"><g transform="translate(-178.08859,-129.56812)"><g data-paper-data="{&quot;isPaintingLayer&quot;:true}" fill-rule="nonzero" stroke-linejoin="miter" stroke-miterlimit="10" stroke-dasharray="" stroke-dashoffset="0" style="mix-blend-mode: normal"><g data-paper-data="{&quot;index&quot;:null}" fill="#949494" stroke="#000000" stroke-width="2"><path d="M210.01621,202.57709c0,0 -6.64286,-11.93942 -3.49459,-18.64127c1.13169,-2.40908 0.89596,-2.59479 2.69679,-6.62759c0.64865,-1.4526 1.4419,-2.94082 2.25333,-4.68416c2.17592,-4.67491 4.48262,-9.71385 4.48262,-9.71385c0,0 12.8362,2.13774 17.33941,2.13774c0.4348,0 21.53684,0.47359 21.97571,0.47078c10.74117,-0.06885 7.24001,-0.23325 7.24001,-0.23325c0,0 5.00242,-3.25087 6.6278,-2.9405c3.12122,0.596 6.09658,-2.66377 7.77886,2.9894c0.7907,2.65709 0.61267,2.95203 0.96648,6.59672c0.51648,5.32044 0.7566,13.44454 -1.04569,18.83477c-2.4256,7.25441 -7.20167,11.09865 -7.20167,11.09865z" stroke-linecap="butt"/><path d="M233.25492,201.62684c0,0 9.15072,-8.9704 8.79967,-18.34394c-0.36124,-4.29476 -5.1374,-13.07136 -5.1374,-13.07136l-4.03795,-4.98805l3.32537,4.27547c0,0 4.10165,-0.47068 6.34937,-0.72861c2.54497,-0.29205 8.13973,-0.93407 8.13973,-0.93407l-0.23753,-1.66268" stroke-linecap="round"/><path d="M262.57001,172.82433c0,0 3.11779,0.51281 5.78238,2.15324c3.24758,1.99934 6.16789,5.44311 6.30116,8.77418c0.13219,3.30408 -0.67646,8.08355 -3.45338,11.01242c-3.42658,3.61409 -9.1053,5.03108 -10.76089,4.83995c-4.48955,-0.51829 -8.18307,-8.6525 -8.46709,-10.60669c-0.78231,-5.3826 1.63974,-12.17764 2.58871,-13.45012c1.76938,-2.37258 8.00911,-2.72298 8.00911,-2.72298" stroke-linecap="round"/><path d="M212.45201,185.88828c0,-4.91169 3.12479,-7.68761 7.2084,-9.39624c1.2606,-0.52746 4.06037,-1.52997 5.49925,-1.52997c6.09996,0 10.09486,4.7358 10.09486,11.16373c0,6.42793 -5.65758,12.58889 -11.75755,12.58889c-6.09997,0 -11.04497,-6.3985 -11.04497,-12.82642z" stroke-linecap="butt"/></g><g data-paper-data="{&quot;index&quot;:null}" stroke="#000000" stroke-width="2" stroke-linecap="round"><path d="M193.23753,157.96038c0,0 9.8184,-0.36242 15.18081,1.85015c2.30639,0.95163 4.85845,2.69326 5.58793,4.05c0.84697,1.57526 -0.34964,2.71436 -0.73406,2.79699c-2.59296,0.55736 -7.71539,-0.49528 -9.77452,-1.34734c-3.60936,-1.49353 -10.49769,-7.34981 -10.49769,-7.34981" fill="#d8d8d8"/><path d="M208.67672,166.51132l1.66268,-5.93816" fill="none"/></g><path d="M247.53252,194.07083l9.08424,-12.24656c0,0 3.65829,-4.12204 5.59669,-3.78739c1.10045,0.18997 4.97511,0.442 6.74601,1.52771c2.21755,1.35956 2.18795,4.41638 2.73755,5.48132c0.23997,0.46498 -1.58618,4.42924 -1.58618,4.42924c0,0 -2.35674,2.50393 -3.91682,4.16143c-2.31543,2.46004 -8.62798,9.16682 -8.62798,9.16682z" data-paper-data="{&quot;index&quot;:null}" fill="#949494" stroke="#000000" stroke-width="2.5" stroke-linecap="butt"/><g data-paper-data="{&quot;index&quot;:null}"><g><path d="M203.81555,193.02212l5.89518,-0.71317l0.59906,4.95195l-5.89518,0.71317z" data-paper-data="{&quot;index&quot;:null}" fill="#000000" stroke="none" stroke-width="0" stroke-linecap="butt"/><path d="M201.56366,206.46897l-4.85278,1.17798l-4.40443,1.73183l-4.23736,-1.45939l1.53844,3.03299l-0.28134,2.67253l0.15823,1.7055l-0.76486,2.45275l-3.31428,-2.20663l-5.90764,-8.05283l-0.15823,-1.7055l0.05278,-3.7099l7.41986,-6.31204l10.72531,0.7913z" fill="#949494" stroke="#000000" stroke-width="2.5" stroke-linecap="round"/><path d="M198.12636,195.80517l3.20883,-3.20877l3.15605,0.50112l2.24174,2.76926l-0.86158,4.97584l-2.38247,4.98461l-1.92529,0.64174z" fill="#242424" stroke="#000000" stroke-width="2.5" stroke-linecap="round"/><path d="M205.82746,199.6558l-1.88134,1.82856l-4.64176,-0.82642" fill="none" stroke="#000000" stroke-width="2.5" stroke-linecap="round"/></g><g stroke="none" stroke-linecap="butt"><path d="M181.73867,200.8066l4.14315,-4.05501l11.79224,1.39117l2.58497,7.37706l-7.63766,2.88087l-5.87751,-1.67367z" fill="#8c6200" stroke-width="NaN"/><path d="M193.51272,195.87208l4.75641,2.57212l2.28747,7.24253l-3.05853,0.71731z" fill="#8c0081" stroke-width="NaN"/><path d="M185.3048,214.94579l-6.08666,-9.55398l3.66419,-4.41361l4.58365,5.71145l0.88541,3.23261l1.59298,3.07917l-0.20576,1.34387l-1.0641,2.52947z" fill="#8c0081" stroke-width="0"/><g fill="#ffffff" stroke-width="0.5"><path d="M195.51822,202.04515c0.00044,0.00011 0.00089,0.00022 0.00132,0.00033c0.26578,0.06525 0.20053,0.33103 0.20053,0.33103c-0.33219,1.29504 -1.49303,1.57337 -2.38164,0.90705c0.11589,-0.05921 0.10027,-0.20314 0.10027,-0.20314c-0.10586,-0.97618 -0.19297,-1.95124 -0.35537,-2.91762c0.33376,-0.32837 0.71275,-0.53395 1.0327,-0.43542c0.4507,0.13881 0.81829,0.62146 1.06652,0.97703c0.28565,0.48865 0.32336,0.85647 0.33567,1.34074zM194.26801,200.89148c0.01222,0.1127 0.1135,0.19415 0.22619,0.18193c0.1127,-0.01222 0.19415,-0.1135 0.18193,-0.2262c-0.01222,-0.1127 -0.1135,-0.19415 -0.22619,-0.18193c-0.1127,0.01222 -0.19415,0.1135 -0.18193,0.22619zM194.48276,202.55429c0.01222,0.1127 0.1135,0.19414 0.2262,0.18192c0.11271,-0.01222 0.19415,-0.11349 0.18193,-0.22618c-0.01222,-0.1127 -0.1135,-0.19415 -0.2262,-0.18193c-0.1127,0.01222 -0.19415,0.1135 -0.18193,0.22619z"/><path d="M193.56036,204.34143c0.04099,0.37786 -0.33687,0.41884 -0.33687,0.41884l0.07018,-0.04797c-0.17789,0.11183 -0.38158,0.17497 -0.59468,0.20571l0.00868,0.01722l-0.01135,0.00572l0.02338,0.11099l-0.46219,0.0974c-0.01383,0.00309 -0.02798,0.00544 -0.0424,0.00701c-0.20869,0.02264 -0.39621,-0.12818 -0.41884,-0.33687c-0.01232,-0.11355 0.02674,-0.22085 0.09852,-0.29871c-0.0049,-0.00469 -0.00748,-0.00744 -0.00748,-0.00744c-0.40458,-0.43558 -0.76777,-0.89635 -1.14179,-1.34916c-0.11797,0.2589 -0.24147,0.51627 -0.37213,0.77201c-0.35998,0.70466 -0.46328,1.58321 -1.14244,2.0038c0.0466,-0.02859 0.16262,-0.09976 0.2118,-0.12992l0.06277,0.11997l0.0421,-0.03754l0.26908,0.3017c0.05263,0.05757 0.08808,0.1318 0.09714,0.2153c0.02263,0.20869 -0.1282,0.3962 -0.33689,0.41883c-0.03457,0.00376 -0.06856,0.00275 -0.10131,-0.0025l-0.37966,-0.05232l0.00925,-0.06716c-0.33048,-0.01475 -0.56241,-0.14225 -0.90596,-0.4814c-0.10678,-0.03154 -0.22923,-0.11305 -0.25157,-0.31904c-0.04099,-0.37786 0.33687,-0.41885 0.33687,-0.41885l0.36591,0.11323c0.02931,0.03273 0.05994,0.06189 0.0911,0.08841c0.23291,-0.52696 0.57863,-1.25568 0.63671,-1.38586c0.27017,-0.60563 0.5348,-1.20539 0.79242,-1.80677c-0.12911,-0.14167 -0.26211,-0.28076 -0.40079,-0.41614c-0.26811,-0.26173 -0.56563,-0.48084 -0.85614,-0.71006c-0.11627,0.23297 -0.28372,0.46287 -0.55122,0.71376l-0.2821,0.35074c-0.06095,0.07579 -0.15083,0.12833 -0.25517,0.13965c-0.2087,0.02263 -0.39622,-0.12818 -0.41885,-0.33687c-0.00511,-0.04721 -0.00136,-0.09332 0.00993,-0.1367l0.1722,-0.7313l0.02942,0.00692c0.04604,-0.63468 0.20984,-1.13315 0.66453,-1.90049l0.11492,-0.14898c0,0 0.23821,-0.29616 0.53438,-0.05796c0.02884,0.0232 0.05263,0.04696 0.07205,0.07093c0.03128,0.00218 0.06495,0.0082 0.10114,0.01888c0.36455,0.10751 0.25705,0.47206 0.25705,0.47206c-0.08687,0.29031 -0.14148,0.54323 -0.19625,0.77473c0.37117,0.32014 0.78131,0.58651 1.13642,0.93202c0.06521,0.06343 0.12917,0.12779 0.19208,0.19293c0.22515,-0.54104 0.44418,-1.08591 0.65599,-1.63999c-0.28745,-0.19724 -0.49796,-0.43886 -0.45185,-0.71708c0.2141,-1.29174 1.87797,0.11655 2.15472,0.42632l0.12445,0.23118c0,0 0.15837,0.34552 -0.18714,0.50388c-0.01991,0.00913 -0.03919,0.01657 -0.05787,0.02252c0.11777,0.78956 0.19281,1.58444 0.27777,2.38012c-0.04465,-0.0504 -0.08802,-0.10369 -0.12992,-0.15988c-0.0645,-0.08648 -0.61507,-0.81419 -0.63841,-0.91909c-0.06928,-0.31134 0.13614,-0.83399 0.4576,-1.29205c-0.02426,0.00567 -0.04741,0.00875 -0.06944,0.00964c-0.15672,0.11841 -0.36146,0.04236 -0.36146,0.04236c-0.10506,-0.03928 -0.26221,-0.09664 -0.43724,-0.17055c-0.24224,0.65413 -0.48396,1.30129 -0.7489,1.93997c0.45228,0.5363 0.87687,1.09324 1.36009,1.60677c0,0 0.02755,0.02948 0.05509,0.07821c0.15686,-0.16086 0.33172,-0.30541 0.51373,-0.43586c0,0 0.3104,-0.21933 0.52973,0.09107c0.14842,0.21007 0.05424,0.37842 -0.02216,0.46531c0.02017,0.04038 0.03484,0.08925 0.04124,0.14837z"/></g></g></g><path d="M227.9768,193.10161l-13.85024,10.10227l-7.36948,-8.38905l-0.37235,-1.54926l10.89579,-11.03094l6.15935,-3.00984l4.87605,2.10558l2.45575,4.76303l-0.28814,3.34674z" data-paper-data="{&quot;index&quot;:null}" fill="#949494" stroke="#000000" stroke-width="2.5" stroke-linecap="round"/><g data-paper-data="{&quot;index&quot;:null}"><g><path d="M251.28905,203.61108l3.0205,-5.11256l4.29455,2.53722l-3.0205,5.11256z" fill="#000000" stroke="none" stroke-width="0" stroke-linecap="butt"/><path d="M242.77611,232.27236c0,0 -1.08851,0.65069 -1.6282,-0.23481c-1.41421,-2.32038 -7.17026,-14.2014 -7.17026,-14.2014l8.29084,-15.51511c0,0 5.1594,5.23182 7.42158,7.12929c0.87763,0.73614 -4.08373,11.13157 -3.68587,11.81695c0.41355,0.7124 -3.26399,-0.11497 -3.94603,0.32102c-0.77009,0.49226 1.42694,2.22697 1.67333,2.70366c0.6942,1.3431 1.54111,4.01626 1.54111,4.01626l-2.49651,3.96413z" fill="#949494" stroke="#000000" stroke-width="2.5" stroke-linecap="butt"/><path d="M242.34909,200.40773l10.21376,1.13794l1.8591,2.33125l0.37862,2.55352l-1.396,2.43412l-3.06317,1.31586z" fill="#242424" stroke="#000000" stroke-width="2.5" stroke-linecap="butt"/><path d="M246.77793,205.87257l-0.02847,-2.12431l1.57188,-1.61459" fill="none" stroke="#000000" stroke-width="2.5" stroke-linecap="round"/><path d="M242.63021,221.38527l-5.93668,0.92943" fill="none" stroke="#000000" stroke-width="2.5" stroke-linecap="round"/></g><g stroke="none" stroke-linecap="butt"><path d="M235.25366,218.8225l6.67613,-14.8987l8.22353,6.02232l-2.04707,2.58927l-3.29532,7.53949z" fill="#8c6200" stroke-width="NaN"/><path d="M240.3955,207.52278l1.80906,-3.47697l7.63415,6.12169l-2.21083,2.69966z" fill="#8c0081" stroke-width="NaN"/><path d="M234.87675,218.57038l10.82748,-1.37505l-0.7436,2.91711l-3.71199,2.14173l1.65752,2.59871l0.93794,3.33754l-0.47306,1.27457l-1.55327,2.26227z" fill="#8c0081" stroke-width="0"/><g fill="#ffffff" stroke-width="0.5"><path d="M243.63586,209.44508c0.00032,-0.00032 0.00064,-0.00063 0.00097,-0.00096c0.19442,-0.19261 0.38703,0.00181 0.38703,0.00181c0.93105,0.95948 0.56234,2.09486 -0.4699,2.50482c0.01,-0.12975 -0.12091,-0.19158 -0.12091,-0.19158c-0.88783,-0.41939 -1.76491,-0.8542 -2.6739,-1.22026c-0.1058,-0.45609 -0.08327,-0.88667 0.16784,-1.1081c0.35371,-0.31192 0.95728,-0.37343 1.39014,-0.39948c0.5659,0.01151 0.8993,0.17139 1.31874,0.41374zM242.27241,209.81106c0.04842,-0.1025 0.00459,-0.22484 -0.09792,-0.27326c-0.1025,-0.04842 -0.22484,-0.00459 -0.27326,0.09792c-0.04842,0.1025 -0.00459,0.22484 0.09792,0.27326c0.1025,0.04842 0.22484,0.00459 0.27326,-0.09792zM243.52943,210.594c0.1025,0.04842 0.22484,0.00459 0.27326,-0.09792c0.04842,-0.1025 0.00459,-0.22484 -0.09792,-0.27326c-0.10249,-0.04841 -0.22484,-0.00459 -0.27326,0.09792c-0.04842,0.10251 -0.00458,0.22485 0.09793,0.27327z"/><path d="M244.57203,212.31381c0.34365,0.16233 0.18133,0.50599 0.18133,0.50599l-0.00427,-0.08491c0.0025,0.2101 -0.05,0.41679 -0.13505,0.6146l0.01923,0.00159l-0.00105,0.01267l0.10688,0.03801l-0.15825,0.44505c-0.00458,0.01341 -0.00996,0.0267 -0.01616,0.03982c-0.08965,0.18979 -0.3162,0.27099 -0.50599,0.18133c-0.10328,-0.04878 -0.17439,-0.13812 -0.20332,-0.23999c-0.00657,0.00173 -0.01025,0.00249 -0.01025,0.00249c-0.58274,0.11763 -1.16535,0.18679 -1.74682,0.26937c0.15922,0.2358 0.31423,0.4755 0.46414,0.72046c0.41302,0.67493 1.10839,1.22174 1.11249,2.02058c-0.00004,-0.05466 -0.00016,-0.19077 -0.00022,-0.24847l0.13509,0.0091l-0.01004,-0.05551l0.39781,-0.07196c0.07658,-0.01483 0.1584,-0.0063 0.23434,0.02956c0.1898,0.08966 0.27099,0.3162 0.18133,0.50599c-0.01485,0.03144 -0.03346,0.05991 -0.05503,0.0851l-0.24285,0.29648l-0.05245,-0.04295c-0.18513,0.27416 -0.41497,0.40539 -0.88359,0.52132c-0.08265,0.0746 -0.2161,0.13647 -0.40346,0.04798c-0.34366,-0.16234 -0.18133,-0.50599 -0.18133,-0.50599l0.28762,-0.25296c0.04322,-0.00791 0.08409,-0.0188 0.12297,-0.03153c-0.32782,-0.47378 -0.76883,-1.14912 -0.84952,-1.26662c-0.37546,-0.54663 -0.74881,-1.08549 -1.1272,-1.61918c-0.18824,0.03615 -0.37632,0.07696 -0.56418,0.12455c-0.3632,0.09201 -0.70541,0.23137 -1.05259,0.35945c0.13799,0.22082 0.24663,0.48365 0.32094,0.84279l0.15185,0.42372c0.03282,0.09156 0.03069,0.19565 -0.01413,0.29055c-0.08966,0.1898 -0.3162,0.27099 -0.50599,0.18133c-0.04294,-0.02028 -0.08032,-0.04756 -0.11141,-0.07984l-0.5338,-0.52869l0.02127,-0.02147c-0.51728,-0.37065 -0.85687,-0.77062 -1.27391,-1.55904l-0.06706,-0.17581c0,0 -0.12821,-0.35781 0.22958,-0.48602c0.03485,-0.01248 0.06752,-0.02036 0.0981,-0.02441c0.01819,-0.02553 0.0409,-0.05111 0.0689,-0.0764c0.28202,-0.25478 0.53681,0.02724 0.53681,0.02724c0.20224,0.22568 0.38944,0.4043 0.55829,0.57189c0.46683,-0.1494 0.90816,-0.36015 1.38824,-0.48259c0.08815,-0.02248 0.17642,-0.04344 0.26483,-0.06309c-0.34388,-0.47452 -0.69424,-0.94581 -1.05619,-1.41575c-0.31831,0.14218 -0.63428,0.19556 -0.84749,0.01097c-0.98989,-0.85705 1.07994,-1.54082 1.48863,-1.61511l0.26215,0.01457c0,0 0.37737,0.04533 0.33203,0.42269c-0.00262,0.02175 -0.00634,0.04208 -0.01101,0.06111c0.73488,0.3118 1.45198,0.66283 2.17496,1.00581c-0.0663,0.01177 -0.1344,0.02094 -0.20419,0.02734c-0.10744,0.00986 -1.01554,0.09947 -1.11718,0.06461c-0.30171,-0.10348 -0.64021,-0.55155 -0.86304,-1.06489c-0.00784,0.02365 -0.0173,0.045 -0.02804,0.06426c0.01916,0.19549 -0.1526,0.33041 -0.1526,0.33041c-0.08835,0.06909 -0.21932,0.17319 -0.37375,0.28387c0.43141,0.54813 0.85714,1.09218 1.26353,1.65161c0.69355,-0.10572 1.39023,-0.17704 2.0805,-0.32106c0,0 0.03952,-0.0081 0.09546,-0.00615c-0.0553,-0.21777 -0.08726,-0.44239 -0.1035,-0.66572c0,0 -0.025,-0.37925 0.35426,-0.40424c0.25666,-0.01692 0.35106,0.15131 0.38528,0.26184c0.04496,0.00388 0.0943,0.01689 0.14807,0.04229z"/></g></g></g><g data-paper-data="{&quot;index&quot;:null}"><g stroke="#000000" stroke-width="2.5"><path d="M265.79664,163.44574c0,0 0.06021,-1.5363 -0.53554,-2.55732c-0.53285,-0.91322 -2.87132,-3.28156 -2.87132,-3.28156c0,0 -5.41586,-2.30294 -5.78535,-5.65078c-0.04195,-0.38003 -0.32256,-8.78878 3.41436,-14.36203c2.67098,-3.98351 9.45196,-5.76233 10.41186,-5.59003c0.74198,0.13318 5.13791,-0.33315 9.49557,0.60647c6.14117,1.3242 12.14042,4.01538 12.14042,4.01538l0.82695,13.73941l-20.46929,4.16949l2.2067,7.06092z" fill="#949494" stroke-linecap="butt"/><path d="M292.77943,143.96246l-13.32211,0.12038l-3.93636,-2.57317l-5.29955,-9.0827l11.65699,1.19903l9.62427,3.08079z" fill="#000000" stroke-linecap="round"/><path d="M274.93181,143.33179l1.62738,-0.3408" fill="none" stroke-linecap="round"/><path d="M276.86226,145.59702l-2.37352,0.25437" fill="none" stroke-linecap="round"/><path d="M275.72172,148.26265l-1.44359,0.05963" fill="none" stroke-linecap="round"/><path d="M291.2747,150.70112c0,0 -12.30759,2.17283 -18.48338,4.04162c-1.51951,0.4598 0.19784,1.98082 -0.7648,2.19354c-8.52906,1.88481 -9.83388,0.06614 -10.82759,-0.73869c-2.46811,-1.99897 -5.2883,-4.76989 -5.30328,-5.36341c-0.01925,-0.7632 1.31406,-2.84323 1.31406,-2.84323l4.15559,0.69815l5.73659,0.7401l5.82302,-0.00604l9.81298,-1.8123l8.78076,2.52939" fill="#373737" stroke-linecap="round"/><path d="M291.42212,153.03413l-0.44307,2.51957l-12.08912,2.53164l-2.65469,0.07058l-1.41678,-2.13009l0.07548,-1.95724l0.8703,-1.63833l1.49227,0.17285l1.45453,1.15147l1.17335,0.96767z" fill="#000000" stroke-linecap="round"/><path d="M269.15369,158.6172l0.30305,2.606" fill="none" stroke-linecap="round"/><path d="M273.61955,157.92466l-8.51545,1.05522" fill="none" stroke-linecap="round"/><path d="M263.696,137.19101l-0.72425,2.33578l0.90313,1.99498l-3.87673,-1.12959l-0.69254,-4.46587l2.4758,-4.40133l1.78439,1.56775l0.91408,3.20608z" fill="#151515" stroke-linecap="round"/><path d="M265.1485,140.65035l-3.1574,1.14656l-2.30898,-2.91397l0.63781,-1.58964l1.88666,-2.57921l1.81118,-0.62197l1.35716,0.6865l1.40584,0.91899l1.0005,2.45995z" fill="none" stroke-linecap="round"/></g><path d="M285.45877,135.33149c2.66891,0.213 3.56687,1.56349 3.53609,3.41865c-0.03077,1.85516 -1.66382,3.33238 -3.64753,3.29947c-1.9837,-0.03291 -3.56687,-1.56349 -3.53609,-3.41865c0.03077,-1.85516 0.8984,-3.51886 3.64753,-3.29947z" fill="#54ff00" stroke="none" stroke-width="0" stroke-linecap="butt"/><path d="M276.48945,139.35853c-0.95015,0.3118 -1.26195,-0.63834 -1.26195,-0.63834l-0.31709,-1.34539c0.28321,-1.60323 0.5807,-2.85023 1.53995,-4.18042c0,0 0.59537,-0.80345 1.39882,-0.20808c0.80345,0.59537 0.20808,1.39882 0.20808,1.39882c-0.80078,1.04145 -0.95381,2.06017 -1.17709,3.33608l0.24761,0.3754c0,0 0.3118,0.95015 -0.63834,1.26195z" fill="#54ff00" stroke="none" stroke-width="0.5" stroke-linecap="butt"/></g></g></g></svg>